<svg width="236" height="21" viewBox="0 0 236 21" fill="none" xmlns="http://www.w3.org/2000/svg">
<path d="M5.13164 20.5H0.631641V0.399999H17.6416V4.45H5.13164V8.98H17.1916V13H5.13164V20.5ZM25.7674 20.8C21.5374 20.8 19.5274 18.19 19.5274 14.83V5.47H24.0274V13.33C24.0274 15.76 25.0474 16.78 27.8974 16.78C30.8374 16.78 31.8874 15.64 31.8874 13.09V5.47H36.3874V20.5H32.1874V15.91H31.9474C31.5574 18.43 29.7274 20.8 25.7674 20.8ZM43.1883 20.5H38.6883V5.47H42.8583V9.46H43.1283C43.5483 7.03 45.1383 5.17 48.1683 5.17C51.5283 5.17 52.9083 7.48 52.9083 10.42V12.91H48.4083V11.35C48.4083 9.7 47.7483 8.98 45.9183 8.98C43.9083 8.98 43.1883 9.91 43.1883 11.8V20.5ZM59.0379 20.5H54.5379V5.47H58.7079V10.09H58.9779C59.3679 7.57 61.1679 5.17 65.0979 5.17C69.2079 5.17 71.1579 7.81 71.1579 11.14V20.5H66.6579V12.64C66.6579 10.24 65.6679 9.22 62.9079 9.22C60.0579 9.22 59.0379 10.36 59.0379 12.91V20.5ZM77.9344 3.94H73.4344V0.399999H77.9344V3.94ZM77.9344 20.5H73.4344V5.47H77.9344V20.5ZM90.8798 20.5H87.1598C83.6498 20.5 81.5198 18.85 81.5198 15.07V9.19H79.1498V5.47H81.5198V2.56H86.0198V5.47H90.8798V9.19H86.0198V14.56C86.0198 16.06 86.5898 16.45 88.1798 16.45H90.8798V20.5ZM98.7752 20.8C94.5452 20.8 92.5352 18.19 92.5352 14.83V5.47H97.0352V13.33C97.0352 15.76 98.0552 16.78 100.905 16.78C103.845 16.78 104.895 15.64 104.895 13.09V5.47H109.395V20.5H105.195V15.91H104.955C104.565 18.43 102.735 20.8 98.7752 20.8ZM116.196 20.5H111.696V5.47H115.866V9.46H116.136C116.556 7.03 118.146 5.17 121.176 5.17C124.536 5.17 125.916 7.48 125.916 10.42V12.91H121.416V11.35C121.416 9.7 120.756 8.98 118.926 8.98C116.916 8.98 116.196 9.91 116.196 11.8V20.5ZM135.526 20.8C130.516 20.8 127.096 18.34 127.096 13C127.096 8.2 130.486 5.17 135.436 5.17C140.356 5.17 143.626 7.75 143.626 12.46C143.626 13 143.566 13.39 143.506 13.9H131.266C131.386 16.21 132.466 17.2 135.376 17.2C138.046 17.2 138.976 16.51 138.976 15.22V14.92H143.476V15.25C143.476 18.52 140.296 20.8 135.526 20.8ZM135.346 8.68C132.676 8.68 131.536 9.58 131.326 11.53H139.306C139.186 9.55 137.986 8.68 135.346 8.68ZM158.683 20.5H153.073L148.963 5.47H153.613L155.383 12.34L156.013 17.02H156.313L157.513 11.89L159.793 5.47H165.583L167.833 11.89L169.033 17.02H169.333L169.993 12.34L171.733 5.47H176.323L172.063 20.5H166.453L163.873 13.27L162.763 9.13H162.433L161.293 13.27L158.683 20.5ZM185.536 20.8C180.406 20.8 176.956 17.74 176.956 13C176.956 8.2 180.406 5.17 185.536 5.17C190.666 5.17 194.116 8.2 194.116 13C194.116 17.74 190.666 20.8 185.536 20.8ZM185.536 16.81C188.566 16.81 189.646 15.64 189.646 13C189.646 10.36 188.566 9.13 185.536 9.13C182.476 9.13 181.426 10.36 181.426 13C181.426 15.64 182.476 16.81 185.536 16.81ZM200.454 20.5H195.954V5.47H200.124V9.46H200.394C200.814 7.03 202.404 5.17 205.434 5.17C208.794 5.17 210.174 7.48 210.174 10.42V12.91H205.674V11.35C205.674 9.7 205.014 8.98 203.184 8.98C201.174 8.98 200.454 9.91 200.454 11.8V20.5ZM216.304 20.5H211.804V0.399999H216.304V20.5ZM225.379 20.8C220.699 20.8 218.119 17.74 218.119 13C218.119 8.2 220.669 5.17 225.139 5.17C228.709 5.17 230.539 6.94 231.049 9.46H231.319V0.399999H235.819V20.5H231.619V16.33H231.379C230.809 19.3 228.829 20.8 225.379 20.8ZM222.679 13C222.679 15.73 224.029 16.69 226.909 16.69C229.759 16.69 231.319 15.7 231.319 13.09V12.85C231.319 10.24 229.789 9.28 226.909 9.28C224.029 9.28 222.679 10.24 222.679 13Z" fill="#FFD400"/>
</svg>
